<svg width="24" height="24" viewBox="0 0 24 24" fill="none" xmlns="http://www.w3.org/2000/svg">
<path d="M8.66965 11.7018C9.44762 13.2923 10.7369 14.5757 12.3309 15.3464C12.4475 15.4017 12.5765 15.4256 12.7052 15.4159C12.8339 15.4061 12.9579 15.3631 13.0648 15.2909L15.4119 13.7258C15.5157 13.6566 15.6352 13.6143 15.7594 13.6029C15.8837 13.5915 16.0088 13.6113 16.1235 13.6604L20.5144 15.5423C20.6636 15.6056 20.7881 15.7158 20.8693 15.856C20.9504 15.9963 20.9838 16.1592 20.9643 16.3201C20.8255 17.4061 20.2956 18.4043 19.4739 19.1277C18.6521 19.8512 17.5948 20.2503 16.5 20.2504C13.1185 20.2504 9.87548 18.9071 7.48439 16.516C5.0933 14.1249 3.75 10.8819 3.75 7.50037C3.75006 6.40553 4.14918 5.34825 4.87264 4.5265C5.5961 3.70475 6.59428 3.17487 7.68028 3.03609C7.84117 3.01662 8.00403 3.04996 8.14432 3.13109C8.28461 3.21223 8.39473 3.33676 8.4581 3.48592L10.3416 7.88072C10.3903 7.99439 10.4101 8.11835 10.3994 8.24156C10.3886 8.36476 10.3475 8.48339 10.2798 8.58687L8.72011 10.97C8.64912 11.0772 8.60716 11.201 8.59831 11.3292C8.58947 11.4575 8.61405 11.5859 8.66965 11.7018V11.7018Z" stroke="#330099" stroke-width="1.5" stroke-linecap="round" stroke-linejoin="round"/>
<path d="M15.75 4.49991H19.5V8.24991" stroke="#330099" stroke-width="1.5" stroke-linecap="round" stroke-linejoin="round"/>
<path d="M15 8.99991L19.5 4.49991" stroke="#330099" stroke-width="1.5" stroke-linecap="round" stroke-linejoin="round"/>
</svg>
