<svg width="19" height="19" viewBox="0 0 19 19" fill="none" xmlns="http://www.w3.org/2000/svg">
<path d="M5.66965 9.7018C6.44762 11.2923 7.73687 12.5757 9.3309 13.3464C9.44753 13.4017 9.57654 13.4256 9.70523 13.4159C9.83392 13.4061 9.95786 13.3631 10.0648 13.2909L12.4119 11.7258C12.5157 11.6566 12.6352 11.6143 12.7594 11.6029C12.8837 11.5915 13.0088 11.6113 13.1235 11.6604L17.5144 13.5423C17.6636 13.6056 17.7881 13.7158 17.8693 13.856C17.9504 13.9963 17.9838 14.1592 17.9643 14.3201C17.8255 15.4061 17.2956 16.4043 16.4739 17.1277C15.6521 17.8512 14.5948 18.2503 13.5 18.2504C10.1185 18.2504 6.87548 16.9071 4.48439 14.516C2.0933 12.1249 0.75 8.88188 0.75 5.50037C0.750058 4.40553 1.14918 3.34825 1.87264 2.5265C2.5961 1.70475 3.59428 1.17487 4.68028 1.03609C4.84117 1.01662 5.00403 1.04996 5.14432 1.13109C5.28461 1.21223 5.39473 1.33676 5.4581 1.48592L7.34158 5.88072C7.3903 5.99439 7.41015 6.11835 7.39936 6.24156C7.38858 6.36476 7.3475 6.48339 7.27977 6.58687L5.72011 8.96997C5.64912 9.07717 5.60716 9.20095 5.59831 9.32923C5.58947 9.4575 5.61405 9.58587 5.66965 9.7018V9.7018Z" stroke="#330099" stroke-width="1.5" stroke-linecap="round" stroke-linejoin="round"/>
</svg>
