<svg width="16" height="16" viewBox="0 0 16 16" fill="none" xmlns="http://www.w3.org/2000/svg">
<path opacity="0.28" fill-rule="evenodd" clip-rule="evenodd" d="M11.9996 4.00003C11.9996 6.21003 10.2096 8.00003 7.99962 8.00003C5.78962 8.00003 3.99962 6.21003 3.99962 4.00003C3.99962 1.79003 5.78962 3.05176e-05 7.99962 3.05176e-05C10.2096 3.05176e-05 11.9996 1.79003 11.9996 4.00003ZM-0.000244141 14C-0.000244141 11.34 5.32976 10 7.99975 10C10.6698 10 15.9998 11.34 15.9998 14V15C15.9998 15.55 15.5498 16 14.9998 16H0.999756C0.449756 16 -0.000244141 15.55 -0.000244141 15V14Z" fill="black"/>
</svg>
