<svg width="24" height="24" viewBox="0 0 24 24" fill="none" xmlns="http://www.w3.org/2000/svg">
<path d="M8.99998 21.3333C9.92045 21.3333 10.6666 20.5871 10.6666 19.6667C10.6666 18.7462 9.92045 18 8.99998 18C8.07951 18 7.33331 18.7462 7.33331 19.6667C7.33331 20.5871 8.07951 21.3333 8.99998 21.3333Z" fill="#D6E0FF"/>
<path d="M17.6667 21.3333C18.5871 21.3333 19.3333 20.5871 19.3333 19.6667C19.3333 18.7462 18.5871 18 17.6667 18C16.7462 18 16 18.7462 16 19.6667C16 20.5871 16.7462 21.3333 17.6667 21.3333Z" fill="#D6E0FF"/>
<path d="M22.0667 4.26C22.0046 4.17932 21.9248 4.11394 21.8335 4.06887C21.7422 4.0238 21.6418 4.00024 21.54 4H6.14001L5.84001 3.04667C5.80706 2.94431 5.74983 2.85144 5.67321 2.77598C5.5966 2.70052 5.50286 2.64472 5.40001 2.61333L2.66668 1.77333C2.58263 1.74751 2.49432 1.73849 2.40679 1.74679C2.31926 1.75509 2.23422 1.78055 2.15653 1.82172C1.99962 1.90486 1.88217 2.04693 1.83001 2.21667C1.77785 2.3864 1.79526 2.56991 1.8784 2.72682C1.96154 2.88372 2.10361 3.00117 2.27335 3.05333L4.66668 3.78667L7.72001 13.4333L6.63335 14.3267L6.54668 14.4133C6.27794 14.7245 6.12569 15.1194 6.11596 15.5304C6.10623 15.9415 6.23963 16.3431 6.49335 16.6667C6.67505 16.8876 6.90595 17.063 7.16757 17.1788C7.42919 17.2945 7.71427 17.3475 8.00001 17.3333H19.1267C19.3035 17.3333 19.4731 17.2631 19.5981 17.1381C19.7231 17.013 19.7933 16.8435 19.7933 16.6667C19.7933 16.4899 19.7231 16.3203 19.5981 16.1953C19.4731 16.0702 19.3035 16 19.1267 16H7.89335C7.81658 15.9974 7.74178 15.975 7.67618 15.935C7.61059 15.8951 7.55641 15.8389 7.51888 15.7718C7.48134 15.7048 7.46173 15.6292 7.46193 15.5524C7.46213 15.4756 7.48213 15.4002 7.52001 15.3333L9.12668 14H19.4133C19.5656 14.0044 19.7148 13.9566 19.8361 13.8644C19.9574 13.7722 20.0435 13.6412 20.08 13.4933L22.2133 4.82667C22.2336 4.72728 22.2309 4.62457 22.2055 4.52638C22.1801 4.42818 22.1326 4.33707 22.0667 4.26Z" fill="#D6E0FF"/>
</svg>
