<svg width="18" height="18" viewBox="0 0 18 18" fill="none" xmlns="http://www.w3.org/2000/svg">
<path opacity="0.28" fill-rule="evenodd" clip-rule="evenodd" d="M9.21186 0.163975C9.42786 -0.0550246 9.77886 -0.0550246 9.99586 0.163975L17.8369 8.09398C17.9419 8.19898 17.9999 8.34198 17.9999 8.48997C17.9999 8.63998 17.9419 8.78198 17.8369 8.88698L17.0529 9.67998C16.5379 10.2 15.7669 10.307 15.1489 10.003L12.6829 13.743H15.5989L17.0149 12.681C17.3829 12.495 17.8169 12.766 17.8169 13.183V16.546C17.8169 16.963 17.3829 17.234 17.0149 17.047L15.5989 15.986H11.2039L10.6999 16.752C9.73086 18.219 7.67386 18.433 6.43286 17.179L0.81286 11.532C-0.42714 10.28 -0.22014 8.19698 1.23486 7.21698L3.18486 5.92698C1.85486 4.36498 2.04886 2.41398 3.23986 1.20998C4.59686 -0.163025 6.83686 -0.0760246 8.11586 1.41598C8.19586 1.25098 8.29286 1.09298 8.42886 0.955975L9.21186 0.163975ZM9.63107 4.83498C9.40907 4.61898 9.05007 4.61898 8.82907 4.83498C8.60707 5.05198 8.60707 5.40298 8.82907 5.61998L9.88907 6.65798C10.2511 7.01098 10.4111 7.51598 10.3161 8.00798L8.36807 6.10298C8.14807 5.88598 7.78807 5.88598 7.56707 6.10298C7.34507 6.31998 7.34507 6.67098 7.56707 6.88698L9.68907 8.96298C9.07207 9.39398 8.22907 9.32698 7.69107 8.80498L6.63107 7.76698C6.52807 7.66698 6.39107 7.60798 6.24507 7.60498C5.93207 7.59698 5.67107 7.83798 5.66307 8.14498L5.54507 12.502V12.528C5.54307 12.834 5.79707 13.083 6.11107 13.084C6.42307 13.084 6.67807 12.837 6.67907 12.531L6.76207 9.46398L6.88907 9.58898C7.87007 10.545 9.43207 10.619 10.5001 9.75698L10.6911 9.94398C10.9131 10.161 11.2711 10.161 11.4941 9.94398C11.7141 9.72698 11.7141 9.37598 11.4941 9.15898L11.2061 8.87898C11.3161 8.65598 11.3941 8.41898 11.4361 8.17498L11.9691 8.69598C12.1911 8.91298 12.5491 8.91298 12.7711 8.69598C12.9931 8.47998 12.9931 8.12898 12.7711 7.91198L10.7331 5.91798L10.6911 5.87298L9.63107 4.83498ZM4.0231 2.00395C5.1141 0.900948 7.0661 1.20195 7.7091 2.87795L4.0791 5.32395C3.0811 4.06695 3.2191 2.81795 4.0231 2.00395Z" fill="black"/>
</svg>
