<svg width="18" height="19" viewBox="0 0 18 19" fill="none" xmlns="http://www.w3.org/2000/svg">
<path d="M17.5122 7.7219L10.0122 0.906274C9.73569 0.653298 9.37449 0.513 8.99971 0.513C8.62493 0.513 8.26373 0.653298 7.98721 0.906274L0.487212 7.7219C0.333654 7.86238 0.21101 8.03328 0.127082 8.22374C0.0431543 8.41419 -0.000222113 8.62002 -0.00028825 8.82815V17.4625C-0.0063862 17.8407 0.127124 18.2078 0.374712 18.4938C0.515232 18.6536 0.688335 18.7814 0.882382 18.8687C1.07643 18.9561 1.28692 19.0008 1.49971 19H5.99971C6.19862 19 6.38939 18.921 6.53004 18.7804C6.67069 18.6397 6.74971 18.4489 6.74971 18.25V13.75C6.74971 13.5511 6.82873 13.3603 6.96938 13.2197C7.11003 13.079 7.3008 13 7.49971 13H10.4997C10.6986 13 10.8894 13.079 11.03 13.2197C11.1707 13.3603 11.2497 13.5511 11.2497 13.75V18.25C11.2497 18.4489 11.3287 18.6397 11.4694 18.7804C11.61 18.921 11.8008 19 11.9997 19H16.4997C16.7485 19.0022 16.9937 18.9409 17.2122 18.8219C17.45 18.6924 17.6485 18.5014 17.787 18.2688C17.9256 18.0363 17.9991 17.7707 17.9997 17.5V8.82815C17.9996 8.62002 17.9563 8.41419 17.8723 8.22374C17.7884 8.03328 17.6658 7.86238 17.5122 7.7219Z" fill="white"/>
</svg>
