<svg width="12" height="20" viewBox="0 0 12 20" fill="none" xmlns="http://www.w3.org/2000/svg">
<path d="M11.4668 9.96143C11.4668 10.3545 11.3208 10.6914 11.0063 10.9834L2.26904 19.541C2.02197 19.7881 1.70752 19.9229 1.33691 19.9229C0.595703 19.9229 0.000488281 19.3389 0.000488281 18.5864C0.000488281 18.2158 0.157715 17.8901 0.404785 17.6318L8.27734 9.96143L0.404785 2.29102C0.157715 2.03271 0.000488281 1.6958 0.000488281 1.33643C0.000488281 0.583984 0.595703 0 1.33691 0C1.70752 0 2.02197 0.134766 2.26904 0.381836L11.0063 8.92822C11.3208 9.23145 11.4668 9.56836 11.4668 9.96143Z" fill="#3366FF"/>
</svg>
